<?xml version="1.0" encoding="UTF-8" standalone="no"?>
<!-- Created with Inkscape (http://www.inkscape.org/) -->

<svg
   width="138.0629mm"
   height="148.86404mm"
   viewBox="0 0 138.0629 148.86404"
   version="1.1"
   id="svg1"
   xml:space="preserve"
   inkscape:version="1.4.2 (ebf0e940d0, 2025-05-08)"
   sodipodi:docname="lighthouse2.svg"
   xmlns:inkscape="http://www.inkscape.org/namespaces/inkscape"
   xmlns:sodipodi="http://sodipodi.sourceforge.net/DTD/sodipodi-0.dtd"
   xmlns="http://www.w3.org/2000/svg"
   xmlns:svg="http://www.w3.org/2000/svg"><sodipodi:namedview
     id="namedview1"
     pagecolor="#505050"
     bordercolor="#eeeeee"
     borderopacity="1"
     inkscape:showpageshadow="0"
     inkscape:pageopacity="0"
     inkscape:pagecheckerboard="0"
     inkscape:deskcolor="#505050"
     inkscape:document-units="mm"
     inkscape:zoom="0.47811548"
     inkscape:cx="-118.17229"
     inkscape:cy="220.65799"
     inkscape:window-width="2560"
     inkscape:window-height="1378"
     inkscape:window-x="0"
     inkscape:window-y="0"
     inkscape:window-maximized="1"
     inkscape:current-layer="layer1" /><defs
     id="defs1" /><g
     inkscape:label="Layer 1"
     inkscape:groupmode="layer"
     id="layer1"
     transform="translate(56.63974,-313.11256)"><path
       id="path4"
       style="fill:#000000"
       d="m 12.299204,313.11313 c -0.60379,0.0116 -1.232844,0.17339 -1.859318,0.493 -1.3855393,0.70685 -1.9504718,1.95918 -1.8350298,4.06952 l 0.0894,1.6309 -8.78551023,5.42448 -8.78602697,5.42448 -0.011369,2.5616 -0.011885,2.5616 2.0897949,0.18241 c 2.058075,0.17953 2.0923863,0.19436 2.2489583,0.97721 0.087448,0.43725 0.1591634,3.45881 0.1591634,6.71483 v 5.92005 c -3.3102208,0 -4.4979166,0.82298 -4.4979166,2.58951 v 3.76049 4.86017 c -0.035883,0.0237 -0.073054,0.0467 -0.1116211,0.0687 -1.2714439,0.72736 -1.3379059,1.58114 -0.1999878,2.57349 0.9037968,0.78815 0.9439436,0.10884 -2.5962241,43.95235 -0.667454,8.26644 -1.638842,20.84267 -2.159041,27.94662 -0.145436,1.9862 -0.274075,3.72642 -0.390674,5.25084 -0.841646,0.13211 -2.0864,0.29867 -3.935161,0.55346 -11.869055,1.63573 -27.047245,5.62759 -35.039204,9.21545 -1.663674,0.74688 -3.151956,1.35538 -3.307292,1.35238 45.836845,0.25504 72.819478,24.07756 138.06289,0.0744 l -3.026688,-1.33687 c -10.58889,-4.67635 -21.10878,-7.52278 -34.97616,-9.46454 -1.488964,-0.20849 -2.876863,-0.43674 -3.878316,-0.63045 -0.325024,-3.85076 -0.749021,-9.0462 -1.324984,-16.05277 -0.828181,-10.07471 -2.282963,-27.72277 -3.233911,-39.21828 -1.485929,-17.96223 -1.611252,-21.00534 -0.888835,-21.6426 1.189969,-1.04967 1.042287,-2.19356 -0.359151,-2.78071 -0.01263,-0.005 -0.02536,-0.0107 -0.03772,-0.016 v -4.54029 -3.89951 c 0,-1.76653 -1.138087,-2.61586 -4.448307,-2.61586 l -0.180351,-2.44739 c -0.09904,-1.34607 -0.139486,-4.32739 -0.09043,-6.62492 0.07165,-3.35607 0.166909,-4.22649 0.485758,-4.42764 0.218281,-0.13771 1.264627,-0.25225 2.324923,-0.25425 l 1.927531,-0.004 -0.07545,-2.56884 -0.07596,-2.56883 -7.008358,-4.31343 c -3.854696,-2.37241 -7.814539,-4.84965 -8.799463,-5.50458 l -1.790588,-1.19062 0.168465,-1.43557 c 0.146416,-1.24577 0.07775,-1.59101 -0.518315,-2.60811 -0.783789,-1.33744 -1.989288,-2.03736 -3.317627,-2.01177 z m -49.774739,16.60984 v 13.51184 c 0,7.43137 0.07294,13.51132 0.162264,13.51132 0.187367,0 17.042533,-6.4775 19.813777,-7.61452 l 1.852084,-0.75965 0.150895,-4.00854 c 0.08301,-2.20466 0.08301,-4.51775 0,-5.13973 l -0.150895,-1.13068 -10.31875,-4.00183 c -5.675313,-2.20089 -10.586641,-4.08389 -10.914063,-4.18476 z m 99.422355,0.41548 c -0.1182,-0.1182 -13.564318,4.87581 -21.436418,7.96179 -0.41872,0.16413 -0.463021,0.67008 -0.463021,5.27978 v 5.09788 l 0.727605,0.15296 c 0.40018,0.0841 5.25198,1.94101 10.78177,4.12637 5.52979,2.18536 10.218589,3.97715 10.419519,3.98115 0.30753,0.007 0.346631,-2.08609 0.247531,-13.21625 -0.06474,-7.27324 -0.189286,-13.29598 -0.276986,-13.38368 z m -49.482251,5.3759 10.649479,0.1447 v 6.83937 6.83938 H 12.439764 1.7654804 l -0.1736328,-4.01061 c -0.226503,-5.23309 -0.2143614,-9.27454 0.028939,-9.65419 0.143403,-0.22376 2.9874287,-0.26537 10.8437824,-0.15865 z m -2.7621054,27.05106 c 1.1483844,0.0184 1.8328564,0.0896 1.8324464,0.21084 -7.95e-4,0.23179 -2.0422018,2.40531 -4.5366741,4.8302 -11.2899406,10.97498 -11.1020617,13.48411 -15.1644294,17.68193 l 0.1157355,-2.12888 c 0.415032,-7.63181 0.2973702,-11.1716 3.0292725,-15.37942 3.2177553,-4.95615 2.8026683,-4.74654 10.1079102,-5.10718 1.8549674,-0.0915 3.4673433,-0.12585 4.6157389,-0.10749 z m 18.9683514,0.59476 c 0.679394,0.14278 1.707137,0.26338 2.284615,0.26613 1.644902,0.0101 1.416263,5.15773 -0.432015,9.72809 -2.341089,5.78895 -6.198288,11.25869 -23.503475,29.96665 -6.7923749,7.343 -11.8422446,14.88094 -15.2068237,19.6944 -3.1590143,4.51938 -3.4704673,3.98095 -2.9502083,-1.61179 0.67039,-7.45465 0.06818,-9.90167 1.3916471,-13.15113 3.7016319,-9.08868 9.53819361,-16.3837 26.2831499,-32.85123 3.268684,-3.21455 7.176687,-7.29738 8.684742,-9.07283 1.445528,-1.33964 1.746671,-3.24764 3.448368,-2.96829 z m 5.206917,25.23519 c 8.09e-4,-0.002 0.0044,-5e-5 0.0067,0 0.03824,9.2e-4 0.06939,0.0247 0.09302,0.0729 0.193635,0.39499 0.541534,4.29173 0.773597,8.65942 0.356162,6.70322 0.258137,8.52194 -0.631486,11.66441 -2.31597,8.1807 -6.147386,14.79382 -19.799308,30.83119 l -8.4263594,9.89811 c -5.39942091,-0.15042 -10.8207374,-0.44105 -16.3840126,-0.81701 0.6724475,-1.09655 1.7222557,-2.75017 2.8964637,-4.55321 3.3209227,-5.09936 10.0984068,-13.35335 27.4179643,-33.39228 7.22965,-8.36478 10.451712,-13.92609 12.365654,-19.11614 0.718559,-1.94846 1.395674,-3.23415 1.687752,-3.24735 z m 4.103592,48.10129 c 0.332435,4.37626 0.732898,9.27788 0.891419,10.89236 l 0.08372,0.85266 c -1.923038,0.52845 -5.672163,0.86125 -11.247376,0.99839 0.44462,-0.68499 1.150324,-1.76186 1.906344,-2.90732 2.861148,-4.33503 6.231656,-11.48501 7.147884,-15.16238 0.295352,-0.90184 0.729687,-1.10166 1.218009,5.32629 z"
       sodipodi:nodetypes="cscccccccsscscccssscsscccscssscccsccsscccccsccsscssccssccscssscsscssssccccssssssscscsscsssscssscssscccssssccscscccsc" /></g></svg>
